# xmcd
#
# Track frame offsets:
#	150
#	13669
#	30937
#	45791
#	60702
#	78311
#	100181
#	113574
#	124827
#	136175
#	140940
#
# Disc length: 2045 seconds
# Revision: 0
# Processed by: cddbd v1.5.2PL0 Copyright (c) Steve Scherf et al.
# Submitted via: dBpowerAMP V12.0
#
DISCID=8507fb0b
DTITLE=The Savage Hearts - Play It Forward
DYEAR=2016
DGENRE=Americana
TTITLE0=Age
TTITLE1=Compadres of the Old Sierra Madre
TTITLE2=El Cumbanchero
TTITLE3=Heaven on Earth
TTITLE4=Faded Love
TTITLE5=Workin' on a Building - Old Time Religion
TTITLE6=Don't Cry Blue
TTITLE7=Ragtime Annie
TTITLE8=High Road
TTITLE9=Rites of Man
TTITLE10=Child's Song
EXTD=
EXTT0=
EXTT1=
EXTT2=
EXTT3=
EXTT4=
EXTT5=
EXTT6=
EXTT7=
EXTT8=
EXTT9=
EXTT10=
PLAYORDER=
